<svg width="60" height="60" viewBox="0 0 60 60" fill="none" xmlns="http://www.w3.org/2000/svg">
<rect x="0.5" y="0.5" width="59" height="59" rx="29.5" fill="white" stroke="#EC80A0"/>
<path d="M32.5357 37.9866V37.0491V29.2143V26H27.1786V29.2143V37.0491V37.9866C27.1786 38.2656 27.279 38.4833 27.4799 38.6395C27.6808 38.7846 27.9375 38.8571 28.25 38.8571H31.4643C31.7768 38.8571 32.0335 38.7846 32.2344 38.6395C32.4353 38.4833 32.5357 38.2656 32.5357 37.9866ZM24.9018 23.8571H28.1663L26.0569 21.1618C25.7667 20.8158 25.3817 20.6429 24.9018 20.6429C24.4554 20.6429 24.0759 20.7991 23.7634 21.1116C23.4509 21.4241 23.2946 21.8036 23.2946 22.25C23.2946 22.6964 23.4509 23.0759 23.7634 23.3884C24.0759 23.7009 24.4554 23.8571 24.9018 23.8571ZM35.9509 23.3884C36.2634 23.0759 36.4196 22.6964 36.4196 22.25C36.4196 21.8036 36.2634 21.4241 35.9509 21.1116C35.6384 20.7991 35.2589 20.6429 34.8125 20.6429C34.3326 20.6429 33.9475 20.8158 33.6574 21.1618L31.5647 23.8571H34.8125C35.2589 23.8571 35.6384 23.7009 35.9509 23.3884ZM42.7143 26.5357V31.8929C42.7143 32.0491 42.6641 32.1775 42.5636 32.2779C42.4632 32.3783 42.3348 32.4286 42.1786 32.4286H40.5714V39.3929C40.5714 39.8393 40.4152 40.2188 40.1027 40.5312C39.7902 40.8438 39.4107 41 38.9643 41H20.75C20.3036 41 19.9241 40.8438 19.6116 40.5312C19.2991 40.2188 19.1429 39.8393 19.1429 39.3929V32.4286H17.5357C17.3795 32.4286 17.2511 32.3783 17.1507 32.2779C17.0502 32.1775 17 32.0491 17 31.8929V26.5357C17 26.3795 17.0502 26.2511 17.1507 26.1507C17.2511 26.0502 17.3795 26 17.5357 26H24.9018C23.8638 26 22.9766 25.6373 22.24 24.9118C21.5145 24.1752 21.1518 23.2879 21.1518 22.25C21.1518 21.2121 21.5145 20.3304 22.24 19.6049C22.9766 18.8683 23.8638 18.5 24.9018 18.5C26.096 18.5 27.0335 18.9297 27.7143 19.7891L29.8571 22.5513L32 19.7891C32.6808 18.9297 33.6183 18.5 34.8125 18.5C35.8504 18.5 36.7321 18.8683 37.4576 19.6049C38.1942 20.3304 38.5625 21.2121 38.5625 22.25C38.5625 23.2879 38.1942 24.1752 37.4576 24.9118C36.7321 25.6373 35.8504 26 34.8125 26H42.1786C42.3348 26 42.4632 26.0502 42.5636 26.1507C42.6641 26.2511 42.7143 26.3795 42.7143 26.5357Z" fill="#EC80A0"/>
</svg>
