<svg width="60" height="60" viewBox="0 0 60 60" fill="none" xmlns="http://www.w3.org/2000/svg">
<rect x="0.5" y="0.5" width="59" height="59" rx="29.5" fill="white" stroke="#EC80A0"/>
<path d="M42.2958 32.9643C42.2958 33.0201 42.2902 33.0592 42.279 33.0815C41.5647 36.0725 40.0692 38.5 37.7924 40.3638C35.5156 42.2165 32.8482 43.1429 29.7902 43.1429C28.1607 43.1429 26.5815 42.8359 25.0525 42.2221C23.5346 41.6083 22.1786 40.7321 20.9844 39.5937L18.8248 41.7533C18.6127 41.9654 18.3616 42.0714 18.0714 42.0714C17.7813 42.0714 17.5301 41.9654 17.3181 41.7533C17.106 41.5413 17 41.2902 17 41V33.5C17 33.2098 17.106 32.9587 17.3181 32.7467C17.5301 32.5346 17.7813 32.4286 18.0714 32.4286H25.5714C25.8616 32.4286 26.1127 32.5346 26.3248 32.7467C26.5368 32.9587 26.6429 33.2098 26.6429 33.5C26.6429 33.7902 26.5368 34.0413 26.3248 34.2533L24.0313 36.5469C24.8237 37.2835 25.7221 37.8527 26.7266 38.2545C27.731 38.6562 28.7746 38.8571 29.8571 38.8571C31.3527 38.8571 32.7478 38.4944 34.0424 37.769C35.3371 37.0435 36.375 36.0446 37.1563 34.7723C37.279 34.5826 37.5748 33.9297 38.0435 32.8136C38.1328 32.5569 38.3002 32.4286 38.5458 32.4286H41.76C41.9051 32.4286 42.0279 32.4844 42.1283 32.596C42.24 32.6964 42.2958 32.8192 42.2958 32.9643ZM42.7143 19.5714V27.0714C42.7143 27.3616 42.6083 27.6127 42.3962 27.8248C42.1842 28.0368 41.933 28.1429 41.6429 28.1429H34.1429C33.8527 28.1429 33.6016 28.0368 33.3895 27.8248C33.1775 27.6127 33.0714 27.3616 33.0714 27.0714C33.0714 26.7812 33.1775 26.5301 33.3895 26.3181L35.6998 24.0078C34.048 22.4788 32.1004 21.7143 29.8571 21.7143C28.3616 21.7143 26.9665 22.077 25.6719 22.8025C24.3772 23.5279 23.3393 24.5268 22.558 25.7991C22.4353 25.9888 22.1395 26.6417 21.6708 27.7578C21.5815 28.0145 21.4141 28.1429 21.1685 28.1429H17.8371C17.692 28.1429 17.5636 28.0926 17.452 27.9922C17.3516 27.8806 17.3013 27.7522 17.3013 27.6071V27.49C18.0268 24.4989 19.5335 22.077 21.8214 20.2243C24.1094 18.3605 26.7879 17.4286 29.8571 17.4286C31.4866 17.4286 33.0714 17.7411 34.6116 18.3661C36.1518 18.9799 37.519 19.8504 38.7132 20.9777L40.8895 18.8181C41.1016 18.606 41.3527 18.5 41.6429 18.5C41.933 18.5 42.1842 18.606 42.3962 18.8181C42.6083 19.0301 42.7143 19.2812 42.7143 19.5714Z" fill="#EC80A0"/>
</svg>
