<svg width="60" height="60" viewBox="0 0 60 60" fill="none" xmlns="http://www.w3.org/2000/svg">
<rect x="0.5" y="0.5" width="59" height="59" rx="29.5" fill="white" stroke="#EC80A0"/>
<path d="M25.0781 40.3638C25.5022 39.9397 25.7143 39.4375 25.7143 38.8571C25.7143 38.2768 25.5022 37.7746 25.0781 37.3504C24.654 36.9263 24.1518 36.7143 23.5714 36.7143C22.9911 36.7143 22.4888 36.9263 22.0647 37.3504C21.6406 37.7746 21.4286 38.2768 21.4286 38.8571C21.4286 39.4375 21.6406 39.9397 22.0647 40.3638C22.4888 40.7879 22.9911 41 23.5714 41C24.1518 41 24.654 40.7879 25.0781 40.3638ZM19.2857 30.2857H25.7143V26H23.0692C22.9241 26 22.8013 26.0502 22.7009 26.1507L19.4364 29.4152C19.3359 29.5156 19.2857 29.6384 19.2857 29.7835V30.2857ZM40.0781 40.3638C40.5022 39.9397 40.7143 39.4375 40.7143 38.8571C40.7143 38.2768 40.5022 37.7746 40.0781 37.3504C39.654 36.9263 39.1518 36.7143 38.5714 36.7143C37.9911 36.7143 37.4888 36.9263 37.0647 37.3504C36.6406 37.7746 36.4286 38.2768 36.4286 38.8571C36.4286 39.4375 36.6406 39.9397 37.0647 40.3638C37.4888 40.7879 37.9911 41 38.5714 41C39.1518 41 39.654 40.7879 40.0781 40.3638ZM45 20.6429V37.7857C45 37.9531 44.9777 38.1038 44.933 38.2377C44.8884 38.3605 44.8103 38.4609 44.6987 38.5391C44.5982 38.6172 44.5089 38.6842 44.4308 38.74C44.3527 38.7846 44.2188 38.8181 44.029 38.8404C43.8504 38.8516 43.7277 38.8627 43.6607 38.8739C43.5938 38.8739 43.4487 38.8739 43.2254 38.8739C43.0134 38.8627 42.8906 38.8571 42.8571 38.8571C42.8571 40.0402 42.4386 41.0502 41.6016 41.8873C40.7645 42.7243 39.7545 43.1429 38.5714 43.1429C37.3884 43.1429 36.3783 42.7243 35.5413 41.8873C34.7042 41.0502 34.2857 40.0402 34.2857 38.8571H27.8571C27.8571 40.0402 27.4386 41.0502 26.6016 41.8873C25.7645 42.7243 24.7545 43.1429 23.5714 43.1429C22.3884 43.1429 21.3783 42.7243 20.5413 41.8873C19.7042 41.0502 19.2857 40.0402 19.2857 38.8571H18.2143C18.1808 38.8571 18.0525 38.8627 17.8292 38.8739C17.6172 38.8739 17.4777 38.8739 17.4107 38.8739C17.3438 38.8627 17.2154 38.8516 17.0257 38.8404C16.8471 38.8181 16.7188 38.7846 16.6406 38.74C16.5625 38.6842 16.4676 38.6172 16.356 38.5391C16.2556 38.4609 16.183 38.3605 16.1384 38.2377C16.0938 38.1038 16.0714 37.9531 16.0714 37.7857C16.0714 37.4955 16.1775 37.2444 16.3895 37.0324C16.6016 36.8203 16.8527 36.7143 17.1429 36.7143V31.3571C17.1429 31.2679 17.1373 31.0725 17.1261 30.7712C17.1261 30.4699 17.1261 30.2578 17.1261 30.135C17.1373 30.0123 17.154 29.8225 17.1763 29.5658C17.1987 29.298 17.2321 29.0915 17.2768 28.9464C17.3326 28.7902 17.4107 28.6172 17.5112 28.4275C17.6228 28.2377 17.7511 28.0703 17.8962 27.9252L21.2109 24.6105C21.423 24.3984 21.702 24.2199 22.048 24.0748C22.4051 23.9297 22.7344 23.8571 23.0357 23.8571H25.7143V20.6429C25.7143 20.3527 25.8203 20.1016 26.0324 19.8895C26.2444 19.6775 26.4955 19.5714 26.7857 19.5714H43.9286C44.2188 19.5714 44.4699 19.6775 44.6819 19.8895C44.894 20.1016 45 20.3527 45 20.6429Z" fill="#EC80A0"/>
</svg>
